<svg width="137" height="44" viewBox="0 0 137 44" fill="none" xmlns="http://www.w3.org/2000/svg">
<path d="M113.917 39.125V7.1875C113.917 5.89583 114.022 4.70833 114.23 3.625C114.438 2.52083 114.876 1.64583 115.542 1C116.23 0.333333 117.272 0 118.667 0C120.167 0 121.261 0.322917 121.949 0.96875C122.657 1.59375 123.105 2.44792 123.292 3.53125C123.501 4.61458 123.605 5.83333 123.605 7.1875V34.5625H129.73C130.98 34.5625 132.126 34.6667 133.167 34.875C134.23 35.0833 135.074 35.5104 135.699 36.1562C136.345 36.8021 136.667 37.7917 136.667 39.125C136.667 40.4792 136.345 41.4896 135.699 42.1562C135.074 42.8021 134.24 43.2292 133.199 43.4375C132.157 43.6458 131.001 43.75 129.73 43.75H120.855C118.626 43.75 116.907 43.5 115.699 43C114.511 42.5 113.917 41.2083 113.917 39.125Z" fill="white"/>
<path d="M95.6725 36.5625V7.1875C95.6725 5.85417 95.7871 4.64583 96.0162 3.5625C96.2454 2.47917 96.7246 1.61458 97.4537 0.96875C98.2037 0.322917 99.3392 0 100.86 0C102.381 0 103.506 0.322917 104.235 0.96875C104.985 1.61458 105.475 2.47917 105.704 3.5625C105.933 4.64583 106.047 5.85417 106.047 7.1875V36.5625C106.047 37.9167 105.933 39.1458 105.704 40.25C105.495 41.3333 105.016 42.1875 104.266 42.8125C103.537 43.4375 102.402 43.75 100.86 43.75C99.36 43.75 98.235 43.4375 97.485 42.8125C96.7558 42.1667 96.2662 41.3021 96.0162 40.2188C95.7871 39.1354 95.6725 37.9167 95.6725 36.5625Z" fill="white"/>
<path d="M71.5525 0H83.8025C85.0525 0 86.2192 0.09375 87.3025 0.28125C88.4067 0.447917 89.2921 0.84375 89.9587 1.46875C90.6462 2.09375 90.99 3.08333 90.99 4.4375C90.99 5.79167 90.6462 6.78125 89.9587 7.40625C89.2921 8.03125 88.4067 8.4375 87.3025 8.625C86.2192 8.79167 85.0525 8.875 83.8025 8.875H76.365V17.375H80.3025C81.5317 17.375 82.6775 17.4583 83.74 17.625C84.8025 17.7708 85.6567 18.1458 86.3025 18.75C86.9692 19.3333 87.3025 20.2917 87.3025 21.625C87.3025 22.9583 86.9692 23.9271 86.3025 24.5312C85.6567 25.1146 84.8025 25.4896 83.74 25.6562C82.6775 25.8021 81.5317 25.875 80.3025 25.875H76.365V34.875H83.8025C85.0525 34.875 86.2192 34.9583 87.3025 35.125C88.4067 35.2917 89.2921 35.6875 89.9587 36.3125C90.6462 36.9167 90.99 37.8958 90.99 39.25C90.99 40.625 90.6462 41.6354 89.9587 42.2812C89.2712 42.9062 88.3754 43.3125 87.2712 43.5C86.1879 43.6667 85.0317 43.75 83.8025 43.75H71.5525C70.0733 43.75 69.0004 43.4271 68.3337 42.7812C67.6879 42.1354 67.2817 41.2708 67.115 40.1875C66.9483 39.1042 66.865 37.8958 66.865 36.5625V7.1875C66.865 5.85417 66.9483 4.64583 67.115 3.5625C67.2817 2.47917 67.6879 1.61458 68.3337 0.96875C69.0004 0.322917 70.0733 0 71.5525 0Z" fill="white"/>
<path d="M56.3075 5.875L62.8075 27.9375C62.8283 28.6458 62.8492 29.3646 62.87 30.0938C62.9117 30.8229 62.9429 31.5521 62.9637 32.2812C63.0262 33.7396 63.0575 35.1667 63.0575 36.5625V37.5C63.0575 38.6875 62.9742 39.75 62.8075 40.6875C62.6617 41.625 62.2867 42.375 61.6825 42.9375C61.0783 43.4792 60.0992 43.75 58.745 43.75C57.3908 43.75 56.4012 43.4792 55.7762 42.9375C55.1512 42.375 54.7554 41.625 54.5887 40.6875C54.4429 39.75 54.37 38.6875 54.37 37.5V33.125H41.87V37.5C41.87 38.6875 41.7867 39.75 41.62 40.6875C41.4742 41.625 41.0887 42.375 40.4637 42.9375C39.8596 43.4792 38.87 43.75 37.495 43.75C36.12 43.75 35.1304 43.4792 34.5262 42.9375C33.9221 42.375 33.5471 41.625 33.4012 40.6875C33.2554 39.75 33.1825 38.6875 33.1825 37.5V36.5625C33.1825 35.8333 33.1929 34.9375 33.2137 33.875C33.2346 32.8125 33.2554 31.7396 33.2762 30.6562C33.3179 29.5729 33.3492 28.6667 33.37 27.9375C33.8908 26.125 34.4221 24.3021 34.9637 22.4688C35.5054 20.6146 36.0679 18.7604 36.6512 16.9062C37.2346 15.0521 37.7971 13.2083 38.3387 11.375C38.8804 9.54167 39.4117 7.70833 39.9325 5.875C40.4117 4.14583 41.0887 2.73958 41.9637 1.65625C42.8596 0.552083 44.3908 0 46.5575 0H49.6825C51.9117 0 53.4429 0.552083 54.2762 1.65625C55.1096 2.73958 55.7867 4.14583 56.3075 5.875ZM48.495 8.125H47.8075L43.1825 24.875H53.12L48.495 8.125Z" fill="white"/>
<path d="M15.3125 44C13 44 11.0312 43.7396 9.40625 43.2188C7.76042 42.6979 6.36458 42.0208 5.21875 41.1875C4.07292 40.3542 3.15625 39.4062 2.46875 38.3438C1.76042 37.2812 1.23958 36.2188 0.90625 35.1562C0.53125 34.0729 0.28125 33.0312 0.15625 32.0312C0.0520833 31.0312 0 30.1667 0 29.4375C0 28.3958 0.302083 27.4792 0.90625 26.6875C1.51042 25.8958 2.875 25.5 5 25.5C5.70833 25.5 6.48958 25.5729 7.34375 25.7188C8.19792 25.8646 8.9375 26.1667 9.5625 26.625C10.1875 27.0625 10.5 27.7292 10.5 28.625C10.5 30.8542 10.8125 32.625 11.4375 33.9375C12.0625 35.2292 13.3542 35.875 15.3125 35.875C16.3333 35.875 17.1146 35.6667 17.6562 35.25C18.2188 34.8333 18.625 34.3646 18.875 33.8438C19.1875 33.1979 19.3542 32.5208 19.375 31.8125V8.875H11.1875C9.97917 8.875 8.83333 8.78125 7.75 8.59375C6.6875 8.38542 5.8125 7.96875 5.125 7.34375C4.45833 6.71875 4.125 5.77083 4.125 4.5C4.125 3.1875 4.45833 2.21875 5.125 1.59375C5.79167 0.947917 6.65625 0.520833 7.71875 0.3125C8.80208 0.104167 9.95833 0 11.1875 0H23.9375C25.4375 0 26.5625 0.322917 27.3125 0.96875C28.0625 1.61458 28.5625 2.47917 28.8125 3.5625C29.0625 4.64583 29.1875 5.85417 29.1875 7.1875V30.9375C29.1875 33.1042 28.875 34.9375 28.25 36.4375C27.625 37.9375 26.8333 39.1771 25.875 40.1562C24.9375 41.1146 23.9062 41.8542 22.7812 42.375C21.6146 42.9167 20.5312 43.2917 19.5312 43.5C18.6771 43.7083 17.8333 43.8438 17 43.9062C16.1875 43.9688 15.625 44 15.3125 44Z" fill="white"/>
</svg>
