<svg width="69" height="22" viewBox="0 0 69 22" fill="none" xmlns="http://www.w3.org/2000/svg">
<path d="M56.9587 19.5625V3.59375C56.9587 2.94792 57.0108 2.35417 57.115 1.8125C57.2192 1.26042 57.4379 0.822917 57.7712 0.5C58.115 0.166667 58.6358 0 59.3337 0C60.0837 0 60.6306 0.161458 60.9744 0.484375C61.3285 0.796875 61.5525 1.22396 61.6462 1.76562C61.7504 2.30729 61.8025 2.91667 61.8025 3.59375V17.2812H64.865C65.49 17.2812 66.0629 17.3333 66.5837 17.4375C67.115 17.5417 67.5369 17.7552 67.8494 18.0781C68.1723 18.401 68.3337 18.8958 68.3337 19.5625C68.3337 20.2396 68.1723 20.7448 67.8494 21.0781C67.5369 21.401 67.1202 21.6146 66.5994 21.7188C66.0785 21.8229 65.5004 21.875 64.865 21.875H60.4275C59.3129 21.875 58.4535 21.75 57.8494 21.5C57.2556 21.25 56.9587 20.6042 56.9587 19.5625Z" fill="white"/>
<path d="M47.8363 18.2812V3.59375C47.8363 2.92708 47.8936 2.32292 48.0082 1.78125C48.1228 1.23958 48.3623 0.807292 48.7269 0.484375C49.1019 0.161458 49.6696 0 50.4301 0C51.1905 0 51.753 0.161458 52.1176 0.484375C52.4926 0.807292 52.7373 1.23958 52.8519 1.78125C52.9665 2.32292 53.0238 2.92708 53.0238 3.59375V18.2812C53.0238 18.9583 52.9665 19.5729 52.8519 20.125C52.7478 20.6667 52.5082 21.0938 52.1332 21.4062C51.7686 21.7188 51.2009 21.875 50.4301 21.875C49.6801 21.875 49.1176 21.7188 48.7426 21.4062C48.378 21.0833 48.1332 20.651 48.0082 20.1094C47.8936 19.5677 47.8363 18.9583 47.8363 18.2812Z" fill="white"/>
<path d="M35.7762 0H41.9012C42.5262 0 43.1096 0.046875 43.6512 0.140625C44.2033 0.223958 44.646 0.421875 44.9794 0.734375C45.3231 1.04688 45.495 1.54167 45.495 2.21875C45.495 2.89583 45.3231 3.39062 44.9794 3.70312C44.646 4.01562 44.2033 4.21875 43.6512 4.3125C43.1096 4.39583 42.5262 4.4375 41.9012 4.4375H38.1825V8.6875H40.1512C40.7658 8.6875 41.3387 8.72917 41.87 8.8125C42.4012 8.88542 42.8283 9.07292 43.1512 9.375C43.4846 9.66667 43.6512 10.1458 43.6512 10.8125C43.6512 11.4792 43.4846 11.9635 43.1512 12.2656C42.8283 12.5573 42.4012 12.7448 41.87 12.8281C41.3387 12.901 40.7658 12.9375 40.1512 12.9375H38.1825V17.4375H41.9012C42.5262 17.4375 43.1096 17.4792 43.6512 17.5625C44.2033 17.6458 44.646 17.8438 44.9794 18.1562C45.3231 18.4583 45.495 18.9479 45.495 19.625C45.495 20.3125 45.3231 20.8177 44.9794 21.1406C44.6356 21.4531 44.1877 21.6562 43.6356 21.75C43.094 21.8333 42.5158 21.875 41.9012 21.875H35.7762C35.0367 21.875 34.5002 21.7135 34.1669 21.3906C33.844 21.0677 33.6408 20.6354 33.5575 20.0938C33.4742 19.5521 33.4325 18.9479 33.4325 18.2812V3.59375C33.4325 2.92708 33.4742 2.32292 33.5575 1.78125C33.6408 1.23958 33.844 0.807292 34.1669 0.484375C34.5002 0.161458 35.0367 0 35.7762 0Z" fill="white"/>
<path d="M28.1538 2.9375L31.4038 13.9688C31.4142 14.3229 31.4246 14.6823 31.4351 15.0469C31.4559 15.4115 31.4715 15.776 31.4819 16.1406C31.5132 16.8698 31.5288 17.5833 31.5288 18.2812V18.75C31.5288 19.3438 31.4871 19.875 31.4038 20.3438C31.3309 20.8125 31.1434 21.1875 30.8413 21.4688C30.5392 21.7396 30.0496 21.875 29.3726 21.875C28.6955 21.875 28.2007 21.7396 27.8882 21.4688C27.5757 21.1875 27.3778 20.8125 27.2944 20.3438C27.2215 19.875 27.1851 19.3438 27.1851 18.75V16.5625H20.9351V18.75C20.9351 19.3438 20.8934 19.875 20.8101 20.3438C20.7371 20.8125 20.5444 21.1875 20.2319 21.4688C19.9299 21.7396 19.4351 21.875 18.7476 21.875C18.0601 21.875 17.5653 21.7396 17.2632 21.4688C16.9611 21.1875 16.7736 20.8125 16.7007 20.3438C16.6278 19.875 16.5913 19.3438 16.5913 18.75V18.2812C16.5913 17.9167 16.5965 17.4688 16.6069 16.9375C16.6174 16.4062 16.6278 15.8698 16.6382 15.3281C16.659 14.7865 16.6746 14.3333 16.6851 13.9688C16.9455 13.0625 17.2111 12.151 17.4819 11.2344C17.7528 10.3073 18.034 9.38021 18.3257 8.45312C18.6174 7.52604 18.8986 6.60417 19.1694 5.6875C19.4403 4.77083 19.7059 3.85417 19.9663 2.9375C20.2059 2.07292 20.5444 1.36979 20.9819 0.828125C21.4299 0.276042 22.1955 0 23.2788 0H24.8413C25.9559 0 26.7215 0.276042 27.1382 0.828125C27.5549 1.36979 27.8934 2.07292 28.1538 2.9375ZM24.2476 4.0625H23.9038L21.5913 12.4375H26.5601L24.2476 4.0625Z" fill="white"/>
<path d="M7.65625 22C6.5 22 5.51562 21.8698 4.70312 21.6094C3.88021 21.349 3.18229 21.0104 2.60938 20.5938C2.03646 20.1771 1.57812 19.7031 1.23438 19.1719C0.880208 18.6406 0.619792 18.1094 0.453125 17.5781C0.265625 17.0365 0.140625 16.5156 0.078125 16.0156C0.0260417 15.5156 0 15.0833 0 14.7188C0 14.1979 0.151042 13.7396 0.453125 13.3438C0.755208 12.9479 1.4375 12.75 2.5 12.75C2.85417 12.75 3.24479 12.7865 3.67188 12.8594C4.09896 12.9323 4.46875 13.0833 4.78125 13.3125C5.09375 13.5312 5.25 13.8646 5.25 14.3125C5.25 15.4271 5.40625 16.3125 5.71875 16.9688C6.03125 17.6146 6.67708 17.9375 7.65625 17.9375C8.16667 17.9375 8.55729 17.8333 8.82812 17.625C9.10938 17.4167 9.3125 17.1823 9.4375 16.9219C9.59375 16.599 9.67708 16.2604 9.6875 15.9062V4.4375H5.59375C4.98958 4.4375 4.41667 4.39062 3.875 4.29688C3.34375 4.19271 2.90625 3.98438 2.5625 3.67188C2.22917 3.35938 2.0625 2.88542 2.0625 2.25C2.0625 1.59375 2.22917 1.10938 2.5625 0.796875C2.89583 0.473958 3.32812 0.260417 3.85938 0.15625C4.40104 0.0520833 4.97917 0 5.59375 0H11.9688C12.7188 0 13.2812 0.161458 13.6562 0.484375C14.0312 0.807292 14.2812 1.23958 14.4062 1.78125C14.5312 2.32292 14.5938 2.92708 14.5938 3.59375V15.4688C14.5938 16.5521 14.4375 17.4688 14.125 18.2188C13.8125 18.9688 13.4167 19.5885 12.9375 20.0781C12.4688 20.5573 11.9531 20.9271 11.3906 21.1875C10.8073 21.4583 10.2656 21.6458 9.76562 21.75C9.33854 21.8542 8.91667 21.9219 8.5 21.9531C8.09375 21.9844 7.8125 22 7.65625 22Z" fill="white"/>
</svg>
