<svg width="172" height="172" viewBox="0 0 172 172" fill="none" xmlns="http://www.w3.org/2000/svg">
<path fill-rule="evenodd" clip-rule="evenodd" d="M86 167C130.735 167 167 130.735 167 86C167 41.2649 130.735 5 86 5C41.2649 5 5 41.2649 5 86C5 130.735 41.2649 167 86 167ZM86 172C133.496 172 172 133.496 172 86C172 38.5035 133.496 0 86 0C38.5035 0 0 38.5035 0 86C0 133.496 38.5035 172 86 172Z" fill="white"/>
<path d="M65.9998 38.9993C63.5998 38.1993 42.6664 40.3326 32.4998 41.4993C30.4998 41.7249 31.6664 42.9264 32.4998 43.4989H59.4997C51.8331 50.8323 35.6998 66.9989 32.4998 72.9989C29.2998 78.9989 33.8331 80.1656 36.4998 79.9989C44.6664 78.4989 62.2998 75.2989 67.4998 74.4989C72.6998 73.6989 71.9998 71.4989 70.9998 70.4989C64.9998 70.9989 51.6998 72.1989 46.4998 72.9989C41.2998 73.7989 41.9998 71.6656 42.9998 70.4989L63.4998 47.4989C65.3331 44.9991 68.3998 39.7993 65.9998 38.9993Z" fill="white"/>
<path d="M86 73.9993C68.8 73.9993 71.1666 37.3323 74.5 19.4989C74.8737 17.4994 77.5 18.4999 77 19.4989V25.4989V32.9989V37.4993C77 40.4993 77 42.9993 77.5 47.4989C77.8865 50.9779 79.6666 57.4989 81 60.4989C81.3333 61.9989 82.8 65.1989 86 65.9989C90 66.9989 94.5 59.9989 94.5 56.4989C96.1 54.4989 95.1666 34.9989 94.5 25.4989C94.2544 21.9993 95.8 19.8993 97 21.4993C101 24.2993 101.5 42.3326 101.5 50.9993C101.5 60.4989 101 73.9993 86 73.9993Z" fill="white"/>
<path d="M121.5 33.5C126.7 29.8997 132.5 35.4998 134.5 39C134.5 40.5 134.74 42.4939 132.5 41C129.5 38.9993 130 38 125 37.4993C121.599 37.1587 118.5 41.5 118.5 45.5C120 53.5 124 53.5 129 60.4989C135 71.4979 128 80.5 123 84C117.5 88 113 88.3333 109.5 87.5C108 87.1667 104.3 85.5 101.5 81.5C98.7 77.5 100 76.5 101.5 77C102.833 77.9996 106.184 80.671 109.5 81.5C113.5 82.5 117.159 80.7005 121 77.5C124 75 126.5 70 123 64C122 62.5 119.1 59.6989 115.5 56.4989C111.9 53.2989 112.333 47.4996 113 45C113.667 42.4998 116.3 37.1003 121.5 33.5Z" fill="white"/>
<path d="M57 91.5H23.5C22.8333 91.6667 21.5 92.5 21.5 94.5C21.5 96.5 25.1666 97.3333 27 97.5H35.5C35.9999 105.167 35.7102 119.813 36 123C37 134 37.5 136.5 39 140C40.1029 142.574 42.5 145.5 42.9998 144.5V99H57C64.5 96.5 59.5 91 57 91.5Z" fill="white"/>
<path d="M81 85.5C73.4 83.9 61.8333 111.5 57 125.5C56.5 127.5 55.3585 129.01 55.5 130C56 133.5 58.1665 131 59.4997 129C61.6664 125.5 64.8359 117.833 66.5 117.5C69 117 78 117 79.5 119.5C80.5 124 80.5 132 81 140C81.499 147.984 84.2894 146.5 84.5 144.5C86.5 125.5 88.6 87.1 81 85.5Z" fill="white"/>
<path d="M96 136C94.4 134.8 94.8333 108.833 95 96C96.2 93.6 98.6666 95 100 96L115 110L115.5 96C115.5 94.5 115.5 91 118.5 91.5C120.867 91.8946 121.667 95 121.5 96C121.5 101 121 110.9 121 116.5C120.5 122 118.13 123 116.5 121.5C112.333 117.667 103.7 109.5 102.5 107.5C101.3 105.5 100.333 106 100 106.5C99.3333 116.833 97.6 137.2 96 136Z" fill="white"/>
<path d="M126.5 131.5L130.5 89C132 87.5 144.2 91.9 147 103.5C150.5 118 140 129 134.5 132.5C130.1 135.3 128 134 126.5 131.5Z" fill="white"/>
<path d="M57 24.5C56.2 23.3 56.6666 21.6667 57 21C59 20.6006 59.8333 22.1669 60 23L62.5 31.5C61 29.6667 57.8 25.7 57 24.5Z" fill="white"/>
<path d="M109 31.5C107.8 28.7 110.5 22.6667 112 20C112.8 20 113 20.6667 113 21C112.667 24.5 111.4 31.5 109 31.5Z" fill="white"/>
<path d="M137 58.5C137.4 56.9009 144.5 52.167 148 50C150 50 148.833 51.3333 148 52C144.167 54.833 136.6 60.0991 137 58.5Z" fill="white"/>
<path d="M141.5 70.5C140.5 69.5 152 65.9989 152.5 65.9989C153.333 65.9989 155.1 66.1992 155.5 67C155.9 67.8008 153 69.0004 151.5 69.5C148.5 70.1667 142.3 71.3 141.5 70.5Z" fill="white"/>
<path d="M148 87.5C148.8 84.7 142.667 80.6667 139.5 79C138.3 79 138.667 80 139 80.5C141.667 84 147.2 90.3 148 87.5Z" fill="white"/>
<path d="M118 144.5C116 144.5 113.5 136.5 112.5 132.5L118 139.5C118.833 141.167 120 144.5 118 144.5Z" fill="white"/>
<path d="M106.5 151.5V141C108.167 143.167 111.3 148.3 110.5 151.5C109.7 154.7 107.5 152.833 106.5 151.5Z" fill="white"/>
<path d="M72.5 160C71.7 158 74.5 150.833 76 147.5V156.5C75.1666 158.5 73.3 162 72.5 160Z" fill="white"/>
<path d="M62.5 150C61.7001 146.4 66.5 141.5 69 139.5L68 145C66.4999 148.167 63.2998 153.6 62.5 150Z" fill="white"/>
<path d="M30.5 106.5C29.7 105.3 24.1666 108 21.5 109.5C20.3333 109.833 18.1 110.9 18.5 112.5C18.9 114.1 22 113.167 23.5 112.5C26.1666 111 31.3 107.7 30.5 106.5Z" fill="white"/>
<path d="M29.4995 84.5C21.8991 79.7 17.3327 79.8333 15.9995 80.5C14.7995 80.9009 15.4995 82.3337 15.9995 83C20.3328 84.1667 29.0995 86.1 29.4995 84.5Z" fill="white"/>
<path d="M31.5 63C29.9 59.4 23.5 55.5 20.5 54V55.5C24.8333 59.5 33.1 66.6 31.5 63Z" fill="white"/>
<path d="M65.9998 38.9993C63.5998 38.1993 42.6664 40.3326 32.4998 41.4993C30.4998 41.7249 31.6664 42.9264 32.4998 43.4989H59.4997C51.8331 50.8323 35.6998 66.9989 32.4998 72.9989C29.2998 78.9989 33.8331 80.1656 36.4998 79.9989C44.6664 78.4989 62.2998 75.2989 67.4998 74.4989C72.6998 73.6989 71.9998 71.4989 70.9998 70.4989C64.9998 70.9989 51.6998 72.1989 46.4998 72.9989C41.2998 73.7989 41.9998 71.6656 42.9998 70.4989L63.4998 47.4989C65.3331 44.9991 68.3998 39.7993 65.9998 38.9993Z" stroke="white" stroke-width="3" stroke-linejoin="round"/>
<path d="M86 73.9993C68.8 73.9993 71.1666 37.3323 74.5 19.4989C74.8737 17.4994 77.5 18.4999 77 19.4989V25.4989V32.9989V37.4993C77 40.4993 77 42.9993 77.5 47.4989C77.8865 50.9779 79.6666 57.4989 81 60.4989C81.3333 61.9989 82.8 65.1989 86 65.9989C90 66.9989 94.5 59.9989 94.5 56.4989C96.1 54.4989 95.1666 34.9989 94.5 25.4989C94.2544 21.9993 95.8 19.8993 97 21.4993C101 24.2993 101.5 42.3326 101.5 50.9993C101.5 60.4989 101 73.9993 86 73.9993Z" stroke="white" stroke-width="3" stroke-linejoin="round"/>
<path d="M121.5 33.5C126.7 29.8997 132.5 35.4998 134.5 39C134.5 40.5 134.74 42.4939 132.5 41C129.5 38.9993 130 38 125 37.4993C121.599 37.1587 118.5 41.5 118.5 45.5C120 53.5 124 53.5 129 60.4989C135 71.4979 128 80.5 123 84C117.5 88 113 88.3333 109.5 87.5C108 87.1667 104.3 85.5 101.5 81.5C98.7 77.5 100 76.5 101.5 77C102.833 77.9996 106.184 80.671 109.5 81.5C113.5 82.5 117.159 80.7005 121 77.5C124 75 126.5 70 123 64C122 62.5 119.1 59.6989 115.5 56.4989C111.9 53.2989 112.333 47.4996 113 45C113.667 42.4998 116.3 37.1003 121.5 33.5Z" stroke="white" stroke-width="3" stroke-linejoin="round"/>
<path d="M57 91.5H23.5C22.8333 91.6667 21.5 92.5 21.5 94.5C21.5 96.5 25.1666 97.3333 27 97.5H35.5C35.9999 105.167 35.7102 119.813 36 123C37 134 37.5 136.5 39 140C40.1029 142.574 42.5 145.5 42.9998 144.5V99H57C64.5 96.5 59.5 91 57 91.5Z" stroke="white" stroke-width="3" stroke-linejoin="round"/>
<path d="M81 85.5C73.4 83.9 61.8333 111.5 57 125.5C56.5 127.5 55.3585 129.01 55.5 130C56 133.5 58.1665 131 59.4997 129C61.6664 125.5 64.8359 117.833 66.5 117.5C69 117 78 117 79.5 119.5C80.5 124 80.5 132 81 140C81.499 147.984 84.2894 146.5 84.5 144.5C86.5 125.5 88.6 87.1 81 85.5Z" stroke="white" stroke-width="3" stroke-linejoin="round"/>
<path d="M96 136C94.4 134.8 94.8333 108.833 95 96C96.2 93.6 98.6666 95 100 96L115 110L115.5 96C115.5 94.5 115.5 91 118.5 91.5C120.867 91.8946 121.667 95 121.5 96C121.5 101 121 110.9 121 116.5C120.5 122 118.13 123 116.5 121.5C112.333 117.667 103.7 109.5 102.5 107.5C101.3 105.5 100.333 106 100 106.5C99.3333 116.833 97.6 137.2 96 136Z" stroke="white" stroke-width="3" stroke-linejoin="round"/>
<path d="M126.5 131.5L130.5 89C132 87.5 144.2 91.9 147 103.5C150.5 118 140 129 134.5 132.5C130.1 135.3 128 134 126.5 131.5Z" stroke="white" stroke-width="3" stroke-linejoin="round"/>
<path d="M57 24.5C56.2 23.3 56.6666 21.6667 57 21C59 20.6006 59.8333 22.1669 60 23L62.5 31.5C61 29.6667 57.8 25.7 57 24.5Z" stroke="white" stroke-width="3" stroke-linejoin="round"/>
<path d="M109 31.5C107.8 28.7 110.5 22.6667 112 20C112.8 20 113 20.6667 113 21C112.667 24.5 111.4 31.5 109 31.5Z" stroke="white" stroke-width="3" stroke-linejoin="round"/>
<path d="M137 58.5C137.4 56.9009 144.5 52.167 148 50C150 50 148.833 51.3333 148 52C144.167 54.833 136.6 60.0991 137 58.5Z" stroke="white" stroke-width="3" stroke-linejoin="round"/>
<path d="M141.5 70.5C140.5 69.5 152 65.9989 152.5 65.9989C153.333 65.9989 155.1 66.1992 155.5 67C155.9 67.8008 153 69.0004 151.5 69.5C148.5 70.1667 142.3 71.3 141.5 70.5Z" stroke="white" stroke-width="3" stroke-linejoin="round"/>
<path d="M148 87.5C148.8 84.7 142.667 80.6667 139.5 79C138.3 79 138.667 80 139 80.5C141.667 84 147.2 90.3 148 87.5Z" stroke="white" stroke-width="3" stroke-linejoin="round"/>
<path d="M118 144.5C116 144.5 113.5 136.5 112.5 132.5L118 139.5C118.833 141.167 120 144.5 118 144.5Z" stroke="white" stroke-width="3" stroke-linejoin="round"/>
<path d="M106.5 151.5V141C108.167 143.167 111.3 148.3 110.5 151.5C109.7 154.7 107.5 152.833 106.5 151.5Z" stroke="white" stroke-width="3" stroke-linejoin="round"/>
<path d="M72.5 160C71.7 158 74.5 150.833 76 147.5V156.5C75.1666 158.5 73.3 162 72.5 160Z" stroke="white" stroke-width="3" stroke-linejoin="round"/>
<path d="M62.5 150C61.7001 146.4 66.5 141.5 69 139.5L68 145C66.4999 148.167 63.2998 153.6 62.5 150Z" stroke="white" stroke-width="3" stroke-linejoin="round"/>
<path d="M30.5 106.5C29.7 105.3 24.1666 108 21.5 109.5C20.3333 109.833 18.1 110.9 18.5 112.5C18.9 114.1 22 113.167 23.5 112.5C26.1666 111 31.3 107.7 30.5 106.5Z" stroke="white" stroke-width="3" stroke-linejoin="round"/>
<path d="M29.4995 84.5C21.8991 79.7 17.3327 79.8333 15.9995 80.5C14.7995 80.9009 15.4995 82.3337 15.9995 83C20.3328 84.1667 29.0995 86.1 29.4995 84.5Z" stroke="white" stroke-width="3" stroke-linejoin="round"/>
<path d="M31.5 63C29.9 59.4 23.5 55.5 20.5 54V55.5C24.8333 59.5 33.1 66.6 31.5 63Z" stroke="white" stroke-width="3" stroke-linejoin="round"/>
</svg>
