<?xml version="1.0" encoding="UTF-8"?>
<svg id="_레이어_2" data-name="레이어 2" xmlns="http://www.w3.org/2000/svg" viewBox="0 0 93.96 72.32">
  <defs>
    <style>
      .cls-1 {
        fill: #dfba37;
        stroke-width: 0px;
      }
    </style>
  </defs>
  <g id="OBJECTS">
    <path class="cls-1" d="m86.8.93c-1.88-1.41-2.31-1.27-3.65.76-.3.45-.96.66-.96,1.31.47.29,1.35-.46,1.43.47.05.64-.64.59-1.14.55-1.31-.1-2.41.46-3.52,1.05-1.77.95-3.58,1.77-5.65,1.72-.95-.02-1.91.11-2.48.91-1.54,2.17-4.83,1.73-6.16,4.2-.07.13-.47.14-.7.1-1.27-.2-1.84.46-2.07,1.59-.09.42-.28.95-.77.74-2.01-.87-2.27.48-2.46,1.89-.09.68-.43.82-1.01.71-.64-.12-.93.14-.89.81.02.45-.19.87-.6,1-2.59.83-4.4,2.85-6.62,4.26-.69.44-1.49.84-2.28.21-.83-.66-.84-.16-1.03.52-.58,2.01-3.21,4.08-5.28,4.13-.47.01-.76-.14-.75.49.01.64-.34,1.11-.86,1.43-1.34.8-2.37,2.12-4.03,2.38-.49.08-1.12.21-1.19.75-.16,1.37-1.38,1.79-2.17,2.58-1.17,1.18-2.78,1.83-3.88,3.1-.44-.82-.37-2.3-2.08-1.54-.46.21-.73-.24-.79-.7-.06-.46.2-1.04-.51-1.22-1.86,1.16-3.36,3.02-5.8,3.04-.44,0-.54.31-.68.6-.5.97-1.31,1.32-2.37,1.56-1.24.28-2.16,1.26-3,2.21-.7.78-.17,1.55,0,2.35.29,1.35,0,1.7-1.55,1.79-.56.03-1.01-.24-1.34.61-.66,1.73-1.85,1.77-3.05.22-.73-.94-1.43-1.03-2.22-.18-.45.48-1.16,1.16-1.07,1.62.37,1.97-1.14,3.06-2.18,3.85-1.44,1.1-.98,2.48-1.45,3.73,1.11-1.29,3.01-1.77,3.36-3.81.15-.86,1.08-1.39,2.13-1.2-.1.91-.08,1.9-.7,2.6-1.47,1.66-.88,3.48-.75,5.24.7.32,1.06-.23,1.55-.26.44-.03.89-.15.71.56-.08.3-.36.67.15.78.34.08.69-.21.76-.51.37-1.66,1.53-1.69,2.87-1.51,2.46.34,4.83,3.46,4.31,5.98-.39,1.92.51,3.24,1.76,4.32,1.28,1.11,2.82,1.16,4.35.29.63-.36,1.32-.67,2.01-.88.31-.09.24.27.16.49.65.54,1.26,1.33,1.28,2.01.05,1.92,1.35,1.81,2.47,1.63,2-.32,4.17-.47,5.86-1.58,1.9-1.25,3.93-1.16,5.96-1.45.72-.1,1.23.2,1.29.84.18,1.93,1.52,1.86,2.9,1.86,5.49-.03,10.11-2.2,14.25-5.64,2.21-1.84,4.42-3.67,6.67-5.46,4-3.2,8.01-6.38,12.05-9.53.65-.5,1.05-1.26,1.65-1.69,2.68-1.96,2.71-1.91,4.18-4.19.06-.1.3-.19.39-.15.26.12.3.7.75.42.48-.3.28-.68.01-1.04-.34-.46-.11-.64.34-.91,1.88-1.11,3.58-2.36,2.95-4.98-.05-.21.03-.58.18-.7,1.67-1.34,1-3.06.55-4.53-.66-2.13-.62-4.7-3.07-5.94.34-1.1.85-2.17,1.7-2.75,2.17-1.49,1.99-4.6,4.29-5.94.62-2.5,1.74-4.71,3.53-6.59.32-.33.33-.93.57-1.36.72-1.33-.22-1.64-1.19-1.8.38-.97,1.95-.62,1.72-1.69-.2-.92-1.65-.51-2.19-1.34-.12-.18-.48-.1-.58.22-.19.6-.44.74-.6.02-.13-.6.24-1.11.58-1.6.48-.7.47-1.34-.53-1.39-1.56-.09-1.54-1.16-1.58-2.23-.77.31-1.41.48-2.25-.15ZM5.53,51.41c-.22-.66-.46-1.32-.65-1.99-.07-.23.04-.53.28-.57.2-.03.51.07.64.23.76.87.35,1.62-.27,2.34Zm4.03-.15c-.07.21-.29.32-.54.23-.27-.09-.38-.32-.23-.57.07-.12.27-.23.41-.23.28,0,.43.19.37.56Zm.59,1.86c-.11.07-.22.15-.33.22-.04-.06-.13-.14-.11-.18.05-.13.13-.3.23-.33.17-.05.25.1.21.29Zm8.79-6.81c-.1-.09-.29-.17-.3-.27-.01-.14.08-.31.18-.43.14-.17.31-.12.36.09.05.24.04.48-.24.61Zm3.69-6.58c-.03.1-.27.15-.41.22-.11-.09-.22-.19-.33-.28.1-.1.2-.28.31-.29.22-.02.52,0,.43.36Zm4.85-.81c-.28.26-.46.71-.95.47-.1-.05-.17-.28-.15-.41.1-.5.33-.95.92-.87.27.04.51.3.76.48-.2.1-.42.18-.58.33ZM88.99,4.84c-.08,1.25,1.11,1.99.4,3.2-1.44-.76-1.65-1.7-.4-3.2Z"/>
  </g>
</svg>